<?xml version="1.0" standalone="no"?>
<!DOCTYPE svg PUBLIC "-//W3C//DTD SVG 20010904//EN"
 "http://www.w3.org/TR/2001/REC-SVG-20010904/DTD/svg10.dtd">
<svg version="1.0" xmlns="http://www.w3.org/2000/svg"
 width="196.000000pt" height="196.000000pt" viewBox="0 0 196.000000 196.000000"
 preserveAspectRatio="xMidYMid meet">
<metadata>
Created by potrace 1.14, written by Peter Selinger 2001-2017
</metadata>
<g transform="translate(0.000000,196.000000) scale(0.100000,-0.100000)"
fill="#000000" stroke="none">
<path d="M355 1890 c-3 -5 -19 -8 -35 -6 -15 2 -34 -1 -42 -5 -11 -7 -10 -9 1
-9 8 0 11 -3 8 -6 -4 -4 -14 -1 -24 7 -11 9 -14 10 -9 2 7 -12 3 -14 -36 -17
-17 -1 -46 -29 -41 -38 2 -5 -2 -8 -10 -8 -17 0 -30 -27 -20 -42 4 -7 1 -8 -6
-4 -8 6 -11 2 -9 -10 2 -11 -6 -23 -20 -30 -13 -6 -20 -13 -14 -15 5 -2 0 -13
-11 -24 -11 -11 -16 -14 -12 -6 5 9 4 12 -3 7 -7 -4 -12 -16 -12 -27 0 -11 -7
-19 -17 -19 -9 0 -13 -3 -10 -7 4 -3 1 -13 -6 -21 -6 -9 -7 -13 -2 -10 13 8
12 -38 0 -49 -4 -5 -6 -3 -2 2 3 6 2 16 -2 23 -4 7 -7 -5 -7 -27 0 -31 2 -36
11 -24 9 12 11 9 10 -11 -1 -14 -5 -29 -10 -33 -4 -5 -5 -1 0 7 5 8 4 12 0 7
-15 -13 -14 -38 1 -44 8 -3 11 -9 8 -14 -5 -8 10 -13 29 -10 5 1 6 -3 2 -9 -3
-6 -11 -8 -16 -5 -5 4 -9 3 -9 -2 0 -14 15 -31 30 -35 14 -3 17 2 19 47 1 15
7 25 17 25 8 0 12 -4 9 -10 -6 -9 -1 -11 38 -14 6 -1 18 -7 26 -14 10 -10 16
-10 27 -1 11 9 18 8 30 -2 9 -8 24 -14 33 -14 9 0 15 -6 13 -14 -3 -12 0 -12
12 -2 13 11 15 10 11 -8 -2 -11 2 -24 10 -28 7 -5 15 -17 17 -28 1 -11 7 -23
12 -27 6 -3 11 -28 13 -55 4 -59 10 -76 23 -68 6 4 7 -1 3 -10 -4 -13 -7 -14
-14 -3 -6 9 -8 6 -7 -9 1 -12 7 -19 15 -16 7 3 13 0 13 -6 0 -6 -5 -11 -12
-11 -9 0 -9 -3 0 -12 7 -7 12 -35 13 -62 0 -38 3 -46 9 -31 9 20 10 13 14
-100 1 -32 2 -34 14 -18 13 17 13 17 12 -2 -4 -40 0 -55 18 -56 14 0 14 -2 -3
-9 -17 -7 -17 -9 -2 -9 9 -1 17 -8 17 -16 0 -8 8 -15 18 -16 14 0 14 -2 -3 -8
-19 -8 -19 -8 3 -15 12 -4 20 -11 17 -16 -3 -4 2 -11 11 -14 8 -3 12 -10 9
-16 -3 -6 1 -7 9 -4 12 4 16 0 16 -16 0 -16 4 -20 15 -16 11 4 15 0 13 -12 -2
-12 3 -16 16 -14 12 2 16 -1 10 -9 -5 -9 -2 -10 10 -6 10 4 15 3 11 -3 -3 -6
1 -10 9 -10 9 0 16 -5 16 -11 0 -5 -6 -7 -12 -3 -9 5 -10 4 -3 -4 6 -5 19 -12
30 -14 11 -2 19 -7 17 -12 -2 -4 5 -14 15 -22 17 -13 17 -14 -2 -8 -19 5 -19
5 -2 -9 14 -11 15 -16 5 -20 -10 -4 -10 -6 1 -6 11 -1 11 -4 0 -18 -10 -11
-10 -14 -2 -9 10 5 13 -8 13 -53 0 -74 -1 -70 29 -104 27 -30 35 -54 20 -63
-5 -3 -6 -10 -3 -16 4 -6 2 -8 -4 -4 -6 3 -13 -2 -16 -12 -5 -15 -18 -18 -86
-19 -50 0 -77 3 -74 9 4 6 -3 5 -14 -1 -15 -8 -23 -8 -28 1 -5 7 -3 8 7 3 8
-5 11 -4 6 0 -12 14 -48 13 -54 -2 -3 -7 -16 -13 -29 -13 -16 0 -24 -6 -25
-17 0 -15 -2 -15 -9 2 -7 17 -9 17 -9 3 -1 -10 -6 -18 -11 -18 -7 0 -6 -5 2
-13 7 -8 23 -13 35 -11 14 1 23 -3 23 -12 0 -8 7 -14 16 -14 9 0 14 -6 11 -13
-3 -8 3 -13 19 -13 18 0 21 3 12 13 -8 10 -7 13 5 13 8 0 17 -5 19 -12 6 -17
48 -18 48 -1 0 8 5 11 10 8 6 -4 7 -11 4 -17 -4 -7 -2 -8 5 -4 6 4 9 12 6 17
-4 5 4 9 15 9 17 0 21 4 16 18 -5 14 -3 14 9 -2 13 -17 17 -18 28 -6 10 10 9
11 -3 5 -8 -5 -11 -4 -7 0 18 20 94 14 81 -6 -4 -8 -9 -7 -16 2 -6 9 -7 3 -4
-19 5 -37 16 -56 16 -28 0 9 4 15 8 12 4 -2 14 -1 22 4 8 5 23 2 39 -8 14 -10
22 -12 19 -7 -4 7 5 9 27 7 19 -2 36 1 40 9 6 8 4 10 -5 4 -9 -5 -11 -4 -6 3
11 18 46 15 46 -4 0 -8 -4 -13 -8 -10 -5 3 -9 -1 -9 -9 0 -8 3 -13 6 -12 3 1
7 -2 8 -8 1 -5 -5 -9 -14 -7 -8 2 -12 -1 -8 -7 3 -6 28 -11 56 -11 38 0 49 4
49 16 0 8 4 13 9 9 5 -3 13 4 16 16 5 15 9 18 15 9 5 -9 9 -9 14 -1 4 6 18 11
32 11 13 0 24 6 24 13 0 8 4 7 10 -3 6 -10 10 -11 10 -2 0 6 8 12 18 12 13 0
14 -2 4 -9 -9 -5 -2 -10 23 -14 43 -7 74 1 53 14 -9 6 -5 9 13 9 15 0 32 7 39
16 8 8 9 14 4 13 -26 -5 -45 2 -38 14 5 8 2 8 -9 -2 -14 -11 -17 -11 -17 1 0
7 -9 14 -20 15 -11 1 -18 -2 -15 -7 3 -4 -5 -6 -17 -2 -14 3 -19 2 -14 -6 4
-7 2 -12 -3 -12 -6 0 -11 5 -11 11 0 5 -4 7 -10 4 -5 -3 -10 -1 -10 4 0 6 -6
10 -12 9 -8 -2 -12 5 -10 16 2 11 -1 15 -8 11 -8 -5 -11 -1 -8 9 1 10 7 16 12
14 13 -5 27 40 21 70 -5 25 -5 25 4 5 15 -34 20 -28 18 20 -2 42 -1 43 28 43
17 -1 36 -8 43 -16 8 -8 11 -9 7 -2 -4 8 3 12 22 12 22 0 25 -2 13 -10 -8 -5
-10 -10 -4 -10 5 0 16 6 23 13 11 9 13 9 7 0 -5 -9 4 -13 31 -14 21 -1 44 -1
52 0 8 2 10 -2 5 -11 -6 -10 -4 -10 9 1 9 7 17 9 17 4 0 -6 12 -9 28 -6 24 3
25 2 7 -7 -18 -9 -17 -10 7 -7 19 3 29 -2 37 -17 11 -19 11 -20 6 -1 -5 19 -5
20 10 1 8 -10 12 -23 9 -28 -3 -4 2 -11 10 -14 9 -3 16 -13 16 -21 0 -8 5 -11
10 -8 5 3 10 -1 10 -9 0 -9 7 -16 16 -16 8 0 12 -5 9 -10 -6 -9 8 -14 28 -11
4 0 7 -3 7 -9 0 -5 -5 -10 -12 -10 -6 0 -8 -3 -5 -6 4 -4 14 -1 22 6 13 11 16
11 13 1 -2 -8 6 -15 17 -17 18 -3 47 -14 89 -36 12 -7 16 -6 11 1 -3 6 1 11
10 11 10 0 13 -5 9 -12 -6 -10 -4 -10 7 -2 8 5 32 11 54 13 30 1 36 -1 25 -8
-8 -6 -10 -11 -5 -11 6 0 17 6 24 12 11 11 13 10 8 -4 -7 -20 14 -18 36 4 14
14 14 16 -9 26 -13 7 -24 18 -24 26 0 10 -6 13 -15 10 -9 -4 -15 0 -15 9 0 8
-7 17 -15 20 -8 4 -12 15 -10 28 3 15 -2 23 -15 26 -11 3 -17 9 -14 14 3 5 -2
9 -10 9 -9 0 -16 7 -16 15 0 8 -9 15 -21 15 -11 0 -17 5 -14 10 3 6 -2 13 -12
17 -23 8 -63 52 -63 70 0 7 -7 13 -16 13 -8 0 -12 5 -9 10 3 6 -2 10 -12 10
-15 0 -16 2 -3 10 13 8 13 10 -2 10 -12 0 -15 5 -11 15 3 9 -3 23 -13 31 -11
9 -13 12 -5 9 9 -6 9 -1 -3 17 -9 14 -13 28 -9 32 4 4 1 4 -8 1 -10 -4 -15 1
-16 14 -2 23 -38 63 -48 53 -4 -4 -5 -2 -4 3 2 6 -1 26 -6 45 -7 31 -9 32 -16
15 -8 -18 -9 -17 -8 5 2 43 -1 50 -15 44 -8 -3 -14 1 -13 8 1 31 -4 49 -12 44
-5 -3 -12 6 -16 21 -5 21 -8 24 -16 12 -6 -10 -9 -5 -9 19 0 18 -4 31 -8 28
-4 -2 -14 -1 -22 5 -10 6 -11 9 -3 9 12 0 1 18 -34 55 -7 8 -13 18 -13 24 0 6
-7 11 -16 11 -10 0 -14 6 -10 15 3 9 0 15 -9 15 -14 0 -20 18 -16 45 1 6 -6 1
-14 -9 -15 -20 -15 -20 -17 0 0 10 -1 25 -1 32 1 10 -2 10 -14 1 -8 -7 -13 -8
-12 -3 4 25 -3 44 -16 44 -8 0 -15 8 -15 18 0 14 -2 15 -10 2 -8 -13 -10 -12
-10 3 0 10 -13 31 -30 47 -16 16 -30 35 -30 42 0 10 -2 10 -9 0 -6 -10 -10 -8
-14 8 -3 12 -10 19 -16 15 -6 -3 -11 1 -11 9 0 10 -9 16 -21 16 -12 0 -23 8
-26 19 -3 12 -11 17 -19 14 -9 -3 -14 0 -12 8 2 8 -5 13 -15 12 -11 0 -16 4
-13 12 2 7 -4 15 -16 18 -11 3 -17 10 -13 16 3 7 0 8 -9 5 -9 -3 -16 -1 -16 6
0 6 -4 8 -10 5 -6 -4 -7 1 -3 11 4 12 3 15 -5 10 -7 -4 -12 -1 -12 8 0 9 -7
16 -17 16 -9 0 -14 3 -10 6 3 4 -4 15 -16 26 -12 11 -16 16 -9 13 11 -6 11 -3
1 14 -10 14 -15 17 -21 8 -5 -7 -8 -1 -8 15 0 15 -8 32 -17 37 -10 6 -14 11
-9 11 6 0 1 6 -10 14 -10 8 -19 23 -19 33 0 10 -6 17 -12 15 -7 -1 -13 2 -13
8 0 5 4 10 10 10 5 0 2 9 -7 19 -9 11 -21 17 -26 14 -6 -4 -8 1 -4 11 5 12 0
19 -16 26 -12 5 -16 9 -9 9 10 1 10 4 0 15 -7 8 -16 12 -20 9 -5 -2 -8 5 -8
16 0 12 -6 21 -14 21 -21 0 -47 30 -39 43 4 7 -1 6 -10 -2 -15 -12 -17 -11
-17 2 0 10 -6 14 -15 11 -8 -4 -15 -1 -15 7 0 7 -3 9 -7 6 -3 -4 -13 -2 -20 5
-8 6 -41 11 -74 10 -36 -1 -57 3 -54 8 4 6 4 10 1 10 -3 0 -8 -4 -11 -10z
m135 -30 c0 -5 -7 -7 -15 -4 -8 4 -15 8 -15 10 0 2 7 4 15 4 8 0 15 -4 15 -10z
m-220 -444 c0 -3 -4 -8 -10 -11 -5 -3 -10 -1 -10 4 0 6 5 11 10 11 6 0 10 -2
10 -4z m-193 -21 c0 -8 -4 -12 -9 -9 -5 3 -6 10 -3 15 9 13 12 11 12 -6z m861
-1012 c-9 -11 -8 -13 2 -11 10 2 14 -6 14 -24 -1 -15 3 -25 8 -22 4 3 5 11 2
17 -4 7 -3 8 2 4 10 -9 11 -14 13 -52 0 -14 6 -25 12 -25 5 0 7 5 3 12 -4 7
-3 8 4 4 7 -4 12 -14 12 -22 0 -8 4 -13 8 -10 5 3 9 0 9 -7 0 -7 3 -23 8 -37
7 -23 6 -24 -9 -11 -15 12 -17 12 -14 0 2 -9 -5 -13 -21 -11 -17 1 -22 -2 -18
-12 4 -10 0 -14 -14 -11 -28 5 -40 15 -34 26 3 5 -2 6 -11 2 -12 -4 -15 -3
-10 5 7 12 -16 17 -56 13 -24 -3 -57 32 -43 46 6 5 18 9 28 7 9 -1 17 4 17 12
0 9 5 12 10 9 6 -4 10 5 10 20 0 19 4 25 13 22 8 -3 14 0 14 6 4 49 9 67 21
67 7 0 10 5 7 10 -4 6 -11 7 -17 4 -7 -5 -8 -2 -4 5 6 9 13 8 27 -5 15 -13 16
-20 7 -31z m985 -258 c-3 -9 -8 -14 -10 -11 -3 3 -2 9 2 15 9 16 15 13 8 -4z"/>
<path d="M736 302 c-2 -4 -1 -14 3 -21 6 -10 10 -9 14 3 6 16 -8 32 -17 18z"/>
<path d="M1305 120 c-3 -6 1 -7 9 -4 18 7 21 14 7 14 -6 0 -13 -4 -16 -10z"/>
</g>
</svg>
