<svg width="28" height="28" viewBox="0 0 28 28" fill="none" xmlns="http://www.w3.org/2000/svg">
<path fill-rule="evenodd" clip-rule="evenodd" d="M28 14.003C28 21.7374 21.7364 28 14.0042 28C6.27112 28 0 21.7374 0 14.003C0 6.26863 6.27112 0 14.0042 0C21.7365 0 28 6.26863 28 14.003M8.26786 7.25436C9.29787 6.87199 10.7208 6.75075 12.9141 6.75075V6.75085H14.8927L13.9245 9.17172H12.5688C11.1127 9.17172 10.1778 9.17614 9.67317 9.34355C9.18223 9.49573 8.81951 9.68014 8.62174 9.96957C8.43891 10.2037 8.37721 10.5233 8.37721 10.8006C8.37721 11.0911 8.40904 11.3661 8.6966 11.7356C9.05137 12.0896 9.63554 12.5468 10.7819 13.252C13.0672 14.6779 13.7432 15.8098 13.7432 17.2991C13.7432 19.7228 11.4574 22.0374 7.62632 22.0374C6.47468 22.0374 4.86728 21.8687 4.18998 21.6526L3.83423 21.548C3.97295 21.0868 4.42793 19.8158 4.62835 19.2785L4.98764 19.3691C5.74059 19.5533 6.91895 19.6616 7.70128 19.6616C9.94275 19.6616 10.8139 18.6496 10.8139 17.7604C10.8139 16.9481 10.3702 16.5025 8.14623 15.1543C6.06185 13.8659 5.34161 12.7457 5.34161 11.1989C5.34161 9.34178 6.53697 7.92862 8.26786 7.25436ZM16.3472 6.75075H23.1602C23.4805 6.75075 23.5418 6.97711 23.4184 7.22351C22.973 8.32769 18.7696 18.8593 18.7696 18.8593H15.9598C15.9598 18.8593 19.2798 10.399 19.8307 9.13881C19.7033 9.13881 19.5859 9.14245 19.4294 9.14731C19.1172 9.157 18.6495 9.17152 17.6372 9.17152H15.379L16.3472 6.75075Z" fill="#C4D600"/>
</svg>
