<svg width="143" height="19" viewBox="0 0 143 19" fill="none" xmlns="http://www.w3.org/2000/svg">
<path fill-rule="evenodd" clip-rule="evenodd" d="M0.898438 0.5H3.50101V7.22842C3.53611 7.1934 4.23949 6.49147 4.47137 6.247C5.00547 5.68754 6.0533 4.54838 6.5643 3.96869C7.31993 3.11129 9.53518 0.5 9.53518 0.5H12.8798L7.13918 7.22978L12.8798 13.9609H9.53518C9.53518 13.9609 7.31857 11.3496 6.5643 10.4922C6.05194 9.91117 5.00547 8.77202 4.47137 8.21255C4.23949 7.96808 3.53611 7.26615 3.50101 7.23114V13.9609H0.898438V0.5ZM137.749 7.07744C136.132 6.78086 135.367 6.45596 135.367 5.80078C135.367 5.27771 135.974 4.58343 137.468 4.58343C139.005 4.58343 139.663 5.27771 139.775 5.94098H142.266C142.09 3.76378 140.447 2.52756 137.699 2.52756C134.785 2.52756 133.059 3.92286 132.945 5.69158C132.836 7.37537 134.009 8.27052 134.86 8.63721C135.247 8.80437 135.642 8.94593 136.061 9.0713C136.355 9.15962 137.108 9.32756 137.812 9.48467C138.451 9.62733 139.051 9.76106 139.23 9.81815C139.998 10.0622 140.454 10.2873 140.454 10.8292C140.454 11.1285 140.324 11.3739 140.072 11.5774C139.687 11.8875 139.184 12.0601 138.245 12.0601C137.76 12.0601 137.01 11.8996 136.522 11.6111C136.065 11.3402 135.671 10.9034 135.526 10.4208H132.889C133.101 11.901 134.494 14.1429 138.105 14.1429C141.386 14.1429 142.898 12.5157 142.898 10.774C142.897 8.24491 140.753 7.62882 137.749 7.07744ZM74.4351 2.72978V0.5H65.4273V13.9609H74.4351V11.7311H68.2025V8.42825H73.5055V6.03131H68.2025V2.72978H74.4351ZM124.592 5.80078C124.592 6.45596 125.357 6.78086 126.974 7.07744C129.979 7.62882 132.124 8.24491 132.124 10.774C132.124 12.5157 130.611 14.1429 127.331 14.1429C123.72 14.1429 122.327 11.901 122.115 10.4208H124.751C124.897 10.9034 125.291 11.3402 125.747 11.6111C126.235 11.8996 126.985 12.0601 127.471 12.0601C128.41 12.0601 128.912 11.8875 129.297 11.5774C129.55 11.3739 129.679 11.1285 129.679 10.8292C129.679 10.2873 129.224 10.0622 128.456 9.81815C128.276 9.76105 127.677 9.62732 127.037 9.48466C126.333 9.32755 125.581 9.15962 125.287 9.0713C124.868 8.94593 124.472 8.80437 124.085 8.63721C123.234 8.27052 122.062 7.37537 122.17 5.69158C122.284 3.92286 124.01 2.52756 126.924 2.52756C129.672 2.52756 131.315 3.76378 131.492 5.94098H129.001C128.888 5.27771 128.23 4.58343 126.693 4.58343C125.2 4.58343 124.592 5.27771 124.592 5.80078ZM52.4389 13.9609V2.7136H55.1135V4.32864C55.6531 3.23532 56.9115 2.5006 58.5084 2.5006C61.183 2.5006 62.7351 4.21809 62.7351 7.00464V10.5502C62.7351 11.4197 62.8927 11.7325 63.4988 11.7325C63.6334 11.7325 63.7693 11.7109 63.8807 11.688V13.9407C63.5654 14.0297 63.1835 14.0741 62.712 14.0741C60.9357 14.0741 60.0591 13.0927 60.0591 11.1312V7.23922C60.0591 5.66732 59.1825 4.68859 57.6767 4.68859C56.1709 4.68859 55.1135 5.78191 55.1135 7.3538V13.9609H52.4389ZM115.469 2.53026C118.536 2.53026 121.007 4.30707 121.007 8.22199L120.967 9.05647H112.503C112.503 10.4922 113.785 12.0614 115.689 12.0614C116.64 12.0614 117.711 11.4898 118.226 10.4235H120.878C120.357 12.3607 118.546 14.1456 115.643 14.1456C112.516 14.1456 110.042 11.9536 110.042 8.45386C110.042 5.01348 111.901 2.53026 115.469 2.53026ZM115.575 4.71959C113.797 4.71959 112.603 6.06231 112.512 7.28505H118.459C118.442 5.98143 117.29 4.71959 115.575 4.71959ZM87.8326 2.71091H84.56L81.5891 6.72963L78.6182 2.71091H75.3457L79.9528 8.52667L75.6487 13.9582H78.9227L81.5891 10.3224L84.2569 13.9582H87.5295L83.2254 8.52667L87.8326 2.71091ZM49.7032 10.5488C49.7032 11.4197 49.8595 11.7311 50.4669 11.7311C50.6015 11.7311 50.736 11.7082 50.8488 11.6866V13.9407C50.5349 14.0297 50.1516 14.0741 49.6801 14.0741C48.3699 14.0741 47.5504 13.5376 47.2107 12.4699C46.735 12.9876 46.1574 13.4068 45.5091 13.694C44.8269 13.9987 44.0849 14.1483 43.336 14.1456C40.2823 14.1335 37.8074 11.5464 37.8074 8.33658C37.8074 5.12942 40.2823 2.53026 43.336 2.53026C44.7671 2.53026 45.9739 3.20836 46.9158 4.18844V2.7136H49.7032V8.83673V10.5488ZM44.0618 11.9077C44.9071 11.8026 45.6736 11.3523 46.2118 10.6715C46.7282 10.015 47.0095 9.17915 47.0082 8.32579C47.0082 7.68544 46.8505 7.05452 46.5502 6.50045C46.243 5.93424 45.7959 5.46375 45.2509 5.14694C44.6869 4.81935 44.0387 4.67106 43.385 4.73307C42.7027 4.79778 42.049 5.09032 41.5176 5.58104C40.9659 6.08793 40.5799 6.77816 40.4236 7.55198C40.2659 8.33253 40.3502 9.14545 40.6655 9.86669C40.974 10.5744 41.4823 11.1474 42.1115 11.5087C42.7149 11.8578 43.3972 11.9927 44.0618 11.9077ZM108.301 2.49925C106.706 2.49925 105.446 3.23531 104.906 4.32729V2.72303H102.232V13.9609H104.906V7.494C104.906 5.95581 105.962 4.8854 107.469 4.8854C108.014 4.8854 108.475 5.01213 108.843 5.24535L110.178 3.0331C109.749 2.69068 109.047 2.49925 108.301 2.49925ZM91.7888 4.18709C92.7306 3.20836 93.9374 2.52891 95.3685 2.52891C98.4223 2.52891 100.897 5.12807 100.897 8.33523C100.897 11.5451 98.4223 14.1321 95.3685 14.1442C94.6197 14.1483 93.8776 13.9973 93.1954 13.6926C92.6558 13.4527 92.1639 13.121 91.7398 12.7179V18.5H89.0177V2.7136H91.7888V4.18709ZM96.593 11.5087C97.2222 11.1474 97.7305 10.5744 98.039 9.86669C98.353 9.14545 98.4386 8.33253 98.2809 7.55198C98.1246 6.77816 97.7387 6.08793 97.1869 5.58104C96.6555 5.09032 96.0032 4.79778 95.3196 4.73307C94.6659 4.67106 94.0176 4.81935 93.4536 5.14694C92.9086 5.46375 92.4615 5.93424 92.1544 6.50045C91.854 7.05452 91.6964 7.68544 91.6964 8.32579C91.695 9.17915 91.9763 10.0136 92.4928 10.6715C93.0323 11.3537 93.7988 11.8039 94.6428 11.9077C95.3074 11.9927 95.9896 11.8565 96.593 11.5087ZM25.2471 11.7311C24.6396 11.7311 24.4833 11.4197 24.4833 10.5488V8.83673V2.7136H21.6959V4.18844C20.7541 3.20836 19.5473 2.53026 18.1162 2.53026C15.0624 2.53026 12.5876 5.12942 12.5876 8.33658C12.5876 11.5464 15.0624 14.1335 18.1162 14.1456C18.865 14.1483 19.6071 13.9987 20.2893 13.694C20.9376 13.4068 21.5152 12.9876 21.9909 12.4699C22.3306 13.5376 23.1501 14.0741 24.4602 14.0741C24.9318 14.0741 25.3151 14.0297 25.629 13.9407V11.6866C25.5162 11.7082 25.3817 11.7311 25.2471 11.7311ZM20.992 10.6715C20.4538 11.3523 19.6873 11.8026 18.8419 11.9077C18.1774 11.9927 17.4951 11.8578 16.8917 11.5087C16.2625 11.1474 15.7542 10.5744 15.4457 9.86669C15.1304 9.14545 15.0461 8.33253 15.2038 7.55198C15.3601 6.77816 15.746 6.08793 16.2978 5.58104C16.8292 5.09032 17.4829 4.79778 18.1651 4.73307C18.8188 4.67106 19.4671 4.81935 20.0311 5.14694C20.5761 5.46375 21.0232 5.93424 21.3304 6.50045C21.6307 7.05452 21.7884 7.68544 21.7884 8.32579C21.7897 9.17915 21.5084 10.015 20.992 10.6715ZM36.8411 2.71495V4.9272L30.5216 11.7486H36.8411V13.9609H27.1756V11.7486L33.4952 4.9272H27.1756V2.71495H36.8411Z" fill="#FF1919"/>
</svg>
