<svg width="90" height="19" viewBox="0 0 90 19" fill="none" xmlns="http://www.w3.org/2000/svg">
<g clip-path="url(#clip0_1670_522)">
<path d="M0 18.9996V-0.000379138H7.44444C9 -0.112144 10.5556 0.111386 12 0.670209C13.5556 1.67609 14.5556 3.46433 14.4444 5.25256C14.6667 7.48786 13.2222 9.61138 11 10.282C9.44444 10.729 8 10.9526 6.44444 10.9526H2.22222V18.9996H0ZM6.11111 8.82903C10.4444 8.82903 12 7.93491 12 5.25256C12.1111 4.24668 11.6667 3.35256 10.8889 2.68197C10 2.01139 9 2.01139 6.44444 2.01139H2.22222V8.82903H6.11111ZM54.8889 10.9526V8.82903H62.1111V10.8408H54.8889V10.9526ZM75.5556 18.9996V-0.000379138H83C84.5556 -0.112144 86.1111 0.111386 87.5556 0.670209C89.1111 1.67609 90.1111 3.46433 90 5.25256C90.2222 7.48786 88.7778 9.61138 86.5556 10.282C85.1111 10.729 83.5556 10.9526 82 10.8408H77.7778V18.9996H75.5556ZM81.6667 8.82903C86 8.82903 87.5556 7.93491 87.5556 5.25256C87.6667 4.24668 87.2222 3.35256 86.4445 2.68197C85.5556 2.01139 84.5556 2.01139 82 2.01139H77.7778V8.82903H81.6667Z" fill="black"/>
</g>
<defs>
<clipPath id="clip0_1670_522">
<rect width="90" height="19" fill="white"/>
</clipPath>
</defs>
</svg>
